<svg fill="#FFFFFF" xmlns="http://www.w3.org/2000/svg" data-name="Layer 1" viewBox="0 0 64 64" x="0px" y="0px"><path d="M24,62H40a2,2,0,0,0,2-2V57h2a3,3,0,0,0,3-3V46a3,3,0,0,0-3-3H42V41h3a1,1,0,0,0,1-1V36a1,1,0,0,0-1-1H43V12a1,1,0,0,0-1-1H39V4h4V2H21V4h4v7H22a1,1,0,0,0-1,1V35H19a1,1,0,0,0-1,1v4a1,1,0,0,0,1,1h3V60A2,2,0,0,0,24,62Zm0-2V51H40v9ZM44,45a1,1,0,0,1,1,1v8a1,1,0,0,1-1,1H42V45Zm-4,4H24V41H40ZM27,4H37v7H27Zm0,9H37V31H27ZM20,37h2a1,1,0,0,0,1-1V13h2V32a1,1,0,0,0,1,1H38a1,1,0,0,0,1-1V13h2V36a1,1,0,0,0,1,1h2v2H20Z"></path><rect x="31" y="15" width="2" height="2"></rect><rect x="31" y="19" width="2" height="2"></rect><rect x="31" y="23" width="2" height="2"></rect><rect x="31" y="27" width="2" height="2"></rect></svg>